<?xml version="1.0" encoding="utf-8"?>
<!-- Generator: Adobe Illustrator 24.2.3, SVG Export Plug-In . SVG Version: 6.00 Build 0)  -->
<svg version="1.1" id="Layer_1" xmlns="http://www.w3.org/2000/svg" xmlns:xlink="http://www.w3.org/1999/xlink" x="0px" y="0px"
	 viewBox="0 0 800 600" style="enable-background:new 0 0 800 600;" xml:space="preserve">


		<style type="text/css">
			text {
				font: normal 16px "Abadi MT Condensed";
			}
		</style>

<defs>
			<linearGradient id="darkBlueGradientRight" gradientUnits="userSpaceOnUse" x1="0" y1="180" x2="60" y2="300">
				<stop offset="0" style="stop-color:#004CD6"></stop>
				<stop offset="1" style="stop-color:#00266B"></stop>
			</linearGradient>
			<linearGradient id="darkBlueGradientLeft" gradientUnits="userSpaceOnUse" x1="60" y1="162.68" x2="0" y2="282.68">
				<stop offset="0" style="stop-color:#004CD6"></stop>
				<stop offset="1" style="stop-color:#00266B"></stop>
			</linearGradient>
			<linearGradient id="lightBlueGradientRight" gradientUnits="userSpaceOnUse" x1="0" y1="180" x2="60" y2="300">
				<stop offset="0" style="stop-color:#448BC9"></stop>
				<stop offset="1" style="stop-color:#1A5589"></stop>
			</linearGradient>
			<linearGradient id="lightBlueGradientLeft" gradientUnits="userSpaceOnUse" x1="60" y1="162.68" x2="0" y2="282.68">
				<stop offset="0" style="stop-color:#448BC9"></stop>
				<stop offset="1" style="stop-color:#1A5589"></stop>
			</linearGradient>
			<linearGradient id="grayGradientRight" gradientUnits="userSpaceOnUse" x1="0" y1="180" x2="60" y2="300">
				<stop offset="0" style="stop-color:#A9B4C4"></stop>
				<stop offset="1" style="stop-color:#838C99"></stop>
			</linearGradient>
			<linearGradient id="grayGradientLeft" gradientUnits="userSpaceOnUse" x1="60" y1="162.68" x2="0" y2="282.68">
				<stop offset="0" style="stop-color:#A9B4C4"></stop>
				<stop offset="1" style="stop-color:#838C99"></stop>
			</linearGradient>
			<linearGradient id="magentaGradientRight" gradientUnits="userSpaceOnUse" x1="0" y1="180" x2="60" y2="300">
				<stop offset="0.3748" style="stop-color:#E72E88"></stop>
				<stop offset="1" style="stop-color:#94275C"></stop>
			</linearGradient>
			<linearGradient id="magentaGradientLeft" gradientUnits="userSpaceOnUse" x1="60" y1="162.68" x2="0" y2="282.68">
				<stop offset="0.3748" style="stop-color:#E72E88"></stop>
				<stop offset="1" style="stop-color:#94275C"></stop>
			</linearGradient>
			<linearGradient id="wineGradientRight" gradientUnits="userSpaceOnUse" x1="0" y1="180" x2="60" y2="300">
				<stop offset="0.3748" style="stop-color:#731744"></stop>
				<stop offset="1" style="stop-color:#280A19"></stop>
			</linearGradient>
			<linearGradient id="wineGradientLeft" gradientUnits="userSpaceOnUse" x1="60" y1="162.68" x2="0" y2="282.68">
				<stop offset="0.3748" style="stop-color:#731744"></stop>
				<stop offset="1" style="stop-color:#280A19"></stop>
			</linearGradient>
			<linearGradient id="limeGradientRight" gradientUnits="userSpaceOnUse" x1="0" y1="180" x2="60" y2="300">
				<stop offset="0" style="stop-color:#8AD100"></stop>
				<stop offset="1" style="stop-color:#5E8F00"></stop>
			</linearGradient>
			<linearGradient id="limeGradientLeft" gradientUnits="userSpaceOnUse" x1="60" y1="162.68" x2="0" y2="282.68">
				<stop offset="0" style="stop-color:#8AD100"></stop>
				<stop offset="1" style="stop-color:#5E8F00"></stop>
			</linearGradient>
			</defs>


		<!--
		<g id='darkBlueChart'>
			<g></g>
			<polygon class='leftFace' points='' />
			<polygon class='rightFace' points='' fill="url('#darkBlueGradientRight')" />
		</g>
		-->
		<g id="lightBlueChart" transform="translate(60 30)">
			<polygon class="leftFace" points="0,300 -21.6506,287.5 -4.33013,227.5 12.9904,217.5 30.3109,197.5 47.6314,177.5 64.9519,167.5 82.2724,157.5 99.5929,137.5 116.913,127.5 134.234,117.5 151.554,97.5 168.875,87.5 186.195,67.5 203.516,57.5 220.836,47.5 238.157,137.5 259.808,150" fill="url('#lightBlueGradientLeft')"></polygon>
			<polygon class="rightFace" points="0,300 17.3205,240 34.641,230 51.9615,210 69.282,190 86.6025,180 103.923,170 121.244,150 138.564,140 155.885,130 173.205,110 190.526,100 207.846,80 225.167,70 242.487,60 259.808,150" fill="url('#lightBlueGradientRight')"></polygon>
		<polygon points="17.3205,240 -4.33013,227.5 12.9904,217.5 34.641,230" fill="#519AD4"></polygon><polygon points="34.641,230 12.9904,217.5 30.3109,197.5 51.9615,210" fill="#519AD4"></polygon><polygon points="51.9615,210 30.3109,197.5 47.6314,177.5 69.282,190" fill="#519AD4"></polygon><polygon points="69.282,190 47.6314,177.5 64.9519,167.5 86.6025,180" fill="#519AD4"></polygon><polygon points="86.6025,180 64.9519,167.5 82.2724,157.5 103.923,170" fill="#519AD4"></polygon><polygon points="103.923,170 82.2724,157.5 99.5929,137.5 121.244,150" fill="#519AD4"></polygon><polygon points="121.244,150 99.5929,137.5 116.913,127.5 138.564,140" fill="#519AD4"></polygon><polygon points="138.564,140 116.913,127.5 134.234,117.5 155.885,130" fill="#519AD4"></polygon><polygon points="155.885,130 134.234,117.5 151.554,97.5 173.205,110" fill="#519AD4"></polygon><polygon points="173.205,110 151.554,97.5 168.875,87.5 190.526,100" fill="#519AD4"></polygon><polygon points="190.526,100 168.875,87.5 186.195,67.5 207.846,80" fill="#519AD4"></polygon><polygon points="207.846,80 186.195,67.5 203.516,57.5 225.167,70" fill="#519AD4"></polygon><polygon points="225.167,70 203.516,57.5 220.836,47.5 242.487,60" fill="#519AD4"></polygon><g transform="translate(212.99894872150765 -3.0249996185302432) skewY(30) scale(0.8660 1)"><rect x="0" y="0" width="43.099998474121094" height="28" fill="#448BC9"></rect><text x="21.549999237060547" y="15" dominant-baseline="middle" text-anchor="middle" fill="white">agile</text></g><g transform="translate(166.60885547308783 -9.808332443237273) skewY(30) scale(0.8660 1)"><rect x="0" y="0" width="110.23332977294922" height="28" fill="#448BC9"></rect><text x="55.11666488647461" y="15" dominant-baseline="middle" text-anchor="middle" fill="white">test automation</text></g><g transform="translate(150.06055316219852 0.6375007629394567) skewY(30) scale(0.8660 1)"><rect x="0" y="0" width="108.44999694824219" height="28" fill="#448BC9"></rect><text x="54.224998474121094" y="15" dominant-baseline="middle" text-anchor="middle" fill="white">design patterns</text></g><g transform="translate(141.80444144964542 25.870832443237305) skewY(30) scale(0.8660 1)"><rect x="0" y="0" width="87.51667022705078" height="28" fill="#448BC9"></rect><text x="43.75833511352539" y="15" dominant-baseline="middle" text-anchor="middle" fill="white">architecture</text></g><g transform="translate(149.86569629007835 50.52500009536743) skewY(30) scale(0.8660 1)"><rect x="0" y="0" width="28.899999618530273" height="28" fill="#448BC9"></rect><text x="14.449999809265137" y="15" dominant-baseline="middle" text-anchor="middle" fill="white">git</text></g><g transform="translate(129.47079786577362 68.75) skewY(30) scale(0.8660 1)"><rect x="0" y="0" width="36" height="28" fill="#448BC9"></rect><text x="18" y="15" dominant-baseline="middle" text-anchor="middle" fill="white">ddd</text></g><g transform="translate(101.3682728522436 72.52499961853027) skewY(30) scale(0.8660 1)"><rect x="0" y="0" width="60.900001525878906" height="28" fill="#448BC9"></rect><text x="30.450000762939453" y="15" dominant-baseline="middle" text-anchor="middle" fill="white">bdd/tdd</text></g><g transform="translate(98.29388332953378 90.75) skewY(30) scale(0.8660 1)"><rect x="0" y="0" width="28" height="28" fill="#448BC9"></rect><text x="14" y="15" dominant-baseline="middle" text-anchor="middle" fill="white">ux</text></g><g transform="translate(60.20319909950657 98.75833320617676) skewY(30) scale(0.8660 1)"><rect x="0" y="0" width="75.96666717529297" height="28" fill="#448BC9"></rect><text x="37.983333587646484" y="15" dominant-baseline="middle" text-anchor="middle" fill="white">azure/aws</text></g><g transform="translate(55.18746918652582 115.86250019073486) skewY(30) scale(0.8660 1)"><rect x="0" y="0" width="47.54999923706055" height="28" fill="#448BC9"></rect><text x="23.774999618530273" y="15" dominant-baseline="middle" text-anchor="middle" fill="white">oauth</text></g><g transform="translate(33.63065373089982 123.4166669845581) skewY(30) scale(0.8660 1)"><rect x="0" y="0" width="57.33333206176758" height="28" fill="#448BC9"></rect><text x="28.66666603088379" y="15" dominant-baseline="middle" text-anchor="middle" fill="white">devops</text></g><g transform="translate(15.537939890411572 142.97083377838135) skewY(30) scale(0.8660 1)"><rect x="0" y="0" width="59.11666488647461" height="28" fill="#448BC9"></rect><text x="29.558332443237305" y="15" dominant-baseline="middle" text-anchor="middle" fill="white">metrics</text></g><g transform="translate(6.300334482169319 167.63749980926514) skewY(30) scale(0.8660 1)"><rect x="0" y="0" width="40.45000076293945" height="28" fill="#448BC9"></rect><text x="20.225000381469727" y="15" dominant-baseline="middle" text-anchor="middle" fill="white">i18n</text></g><g transform="translate(-34.09975027401227 164.3125) skewY(30) scale(0.8660 1)"><rect x="0" y="0" width="93.75" height="28" fill="#448BC9"></rect><text x="46.875" y="15" dominant-baseline="middle" text-anchor="middle" fill="white">infra as code</text></g></g>
		<g id="grayChart" transform="translate(160 80)">
			<polygon class="leftFace" points="0,300 -21.6506,287.5 -1.66543,255.962 18.3198,224.423 38.305,202.885 58.2902,191.346 78.2754,179.808 98.2606,158.269 118.246,136.731 138.231,125.192 158.216,113.654 178.201,92.1154 198.187,60.5769 218.172,49.0385 238.157,137.5 259.808,150" fill="url('#grayGradientLeft')"></polygon>
			<polygon class="rightFace" points="0,300 19.9852,268.462 39.9704,236.923 59.9556,215.385 79.9408,203.846 99.926,192.308 119.911,170.769 139.896,149.231 159.882,137.692 179.867,126.154 199.852,104.615 219.837,73.0769 239.822,61.5385 259.808,150" fill="url('#grayGradientRight')"></polygon>
		<polygon points="19.9852,268.462 -1.66543,255.962 18.3198,224.423 39.9704,236.923" fill="#A9B7C9"></polygon><polygon points="39.9704,236.923 18.3198,224.423 38.305,202.885 59.9556,215.385" fill="#A9B7C9"></polygon><polygon points="59.9556,215.385 38.305,202.885 58.2902,191.346 79.9408,203.846" fill="#A9B7C9"></polygon><polygon points="79.9408,203.846 58.2902,191.346 78.2754,179.808 99.926,192.308" fill="#A9B7C9"></polygon><polygon points="99.926,192.308 78.2754,179.808 98.2606,158.269 119.911,170.769" fill="#A9B7C9"></polygon><polygon points="119.911,170.769 98.2606,158.269 118.246,136.731 139.896,149.231" fill="#A9B7C9"></polygon><polygon points="139.896,149.231 118.246,136.731 138.231,125.192 159.882,137.692" fill="#A9B7C9"></polygon><polygon points="159.882,137.692 138.231,125.192 158.216,113.654 179.867,126.154" fill="#A9B7C9"></polygon><polygon points="179.867,126.154 158.216,113.654 178.201,92.1154 199.852,104.615" fill="#A9B7C9"></polygon><polygon points="199.852,104.615 178.201,92.1154 198.187,60.5769 219.837,73.0769" fill="#A9B7C9"></polygon><polygon points="219.837,73.0769 198.187,60.5769 218.172,49.0385 239.822,61.5385" fill="#A9B7C9"></polygon><g transform="translate(212.62200456691775 -0.16570535072912662) skewY(30) scale(0.8660 1)"><rect x="0" y="0" width="37.816667556762695" height="28" fill="#788598"></rect><text x="18.908333778381348" y="15" dominant-baseline="middle" text-anchor="middle" fill="white">js/ts</text></g><g transform="translate(163.77650652518784 -5.289743716900144) skewY(30) scale(0.8660 1)"><rect x="0" y="0" width="104.46666717529297" height="28" fill="#788598"></rect><text x="52.233333587646484" y="15" dominant-baseline="middle" text-anchor="middle" fill="white">css/responsive</text></g><g transform="translate(142.26132690628222 25.36538461538464) skewY(30) scale(0.8660 1)"><rect x="0" y="0" width="108" height="28" fill="#788598"></rect><text x="54" y="15" dominant-baseline="middle" text-anchor="middle" fill="white">webforms/mvc</text></g><g transform="translate(140.17398307476176 57.23717916928808) skewY(30) scale(0.8660 1)"><rect x="0" y="0" width="66.66666793823242" height="28" fill="#788598"></rect><text x="33.33333396911621" y="15" dominant-baseline="middle" text-anchor="middle" fill="white">e2e tests</text></g><g transform="translate(129.2315308109953 73.99647448613095) skewY(30) scale(0.8660 1)"><rect x="0" y="0" width="45.78333282470703" height="28" fill="#788598"></rect><text x="22.891666412353516" y="15" dominant-baseline="middle" text-anchor="middle" fill="white">maps</text></g><g transform="translate(88.46893461080572 73.53910167400656) skewY(30) scale(0.8660 1)"><rect x="0" y="0" width="93.76667022705078" height="28" fill="#788598"></rect><text x="46.88333511352539" y="15" dominant-baseline="middle" text-anchor="middle" fill="white">angular/ngrx</text></g><g transform="translate(72.72725878500461 97.52756397540753) skewY(30) scale(0.8660 1)"><rect x="0" y="0" width="83.96666717529297" height="28" fill="#788598"></rect><text x="41.983333587646484" y="15" dominant-baseline="middle" text-anchor="middle" fill="white">react/redux</text></g><g transform="translate(72.36474981871515 130.39519240305975) skewY(30) scale(0.8660 1)"><rect x="0" y="0" width="38.64999961853027" height="28" fill="#788598"></rect><text x="19.324999809265137" y="15" dominant-baseline="middle" text-anchor="middle" fill="white">pwa</text></g><g transform="translate(50.055713304371764 140.5919872430655) skewY(30) scale(0.8660 1)"><rect x="0" y="0" width="44.016666412353516" height="28" fill="#788598"></rect><text x="22.008333206176758" y="15" dominant-baseline="middle" text-anchor="middle" fill="white">swift</text></g><g transform="translate(4.86917209808739 137.58044859079212) skewY(30) scale(0.8660 1)"><rect x="0" y="0" width="102.21666717529297" height="28" fill="#788598"></rect><text x="51.108333587646484" y="15" dominant-baseline="middle" text-anchor="middle" fill="white">web assembly</text></g><g transform="translate(3.546818914934729 169.89391070145825) skewY(30) scale(0.8660 1)"><rect x="0" y="0" width="59.11666488647461" height="28" fill="#788598"></rect><text x="29.558332443237305" y="15" dominant-baseline="middle" text-anchor="middle" fill="white">sockets</text></g><g transform="translate(-14.886754413017012 202.3282052553617) skewY(30) scale(0.8660 1)"><rect x="0" y="0" width="55.53333282470703" height="28" fill="#788598"></rect><text x="27.766666412353516" y="15" dominant-baseline="middle" text-anchor="middle" fill="white">speech</text></g></g>
		<g id="magentaChart" transform="translate(260 130)">
			<polygon class="leftFace" points="0,300 -21.6506,287.5 -3.09295,236.786 15.4647,226.071 34.0224,205.357 52.5801,194.643 71.1378,173.929 89.6955,153.214 108.253,142.5 126.811,131.786 145.369,121.071 163.926,100.357 182.484,89.6429 201.042,68.9286 219.599,48.2143 238.157,137.5 259.808,150" fill="url('#magentaGradientLeft')"></polygon>
			<polygon class="rightFace" points="0,300 18.5577,249.286 37.1154,238.571 55.6731,217.857 74.2308,207.143 92.7884,186.429 111.346,165.714 129.904,155 148.462,144.286 167.019,133.571 185.577,112.857 204.135,102.143 222.692,81.4286 241.25,60.7143 259.808,150" fill="url('#magentaGradientRight')"></polygon>
		<polygon points="18.5577,249.286 -3.09295,236.786 15.4647,226.071 37.1154,238.571" fill="#FF54A6"></polygon><polygon points="37.1154,238.571 15.4647,226.071 34.0224,205.357 55.6731,217.857" fill="#FF54A6"></polygon><polygon points="55.6731,217.857 34.0224,205.357 52.5801,194.643 74.2308,207.143" fill="#FF54A6"></polygon><polygon points="74.2308,207.143 52.5801,194.643 71.1378,173.929 92.7884,186.429" fill="#FF54A6"></polygon><polygon points="92.7884,186.429 71.1378,173.929 89.6955,153.214 111.346,165.714" fill="#FF54A6"></polygon><polygon points="111.346,165.714 89.6955,153.214 108.253,142.5 129.904,155" fill="#FF54A6"></polygon><polygon points="129.904,155 108.253,142.5 126.811,131.786 148.462,144.286" fill="#FF54A6"></polygon><polygon points="148.462,144.286 126.811,131.786 145.369,121.071 167.019,133.571" fill="#FF54A6"></polygon><polygon points="167.019,133.571 145.369,121.071 163.926,100.357 185.577,112.857" fill="#FF54A6"></polygon><polygon points="185.577,112.857 163.926,100.357 182.484,89.6429 204.135,102.143" fill="#FF54A6"></polygon><polygon points="204.135,102.143 182.484,89.6429 201.042,68.9286 222.692,81.4286" fill="#FF54A6"></polygon><polygon points="222.692,81.4286 201.042,68.9286 219.599,48.2143 241.25,60.7143" fill="#FF54A6"></polygon><g transform="translate(218.6899719776135 1.6892856189182908) skewY(30) scale(0.8660 1)"><rect x="0" y="0" width="27.100000381469727" height="28" fill="#E72E88"></rect><text x="13.550000190734863" y="15" dominant-baseline="middle" text-anchor="middle" fill="white">c#</text></g><g transform="translate(196.66096637027943 20.399404730115634) skewY(30) scale(0.8660 1)"><rect x="0" y="0" width="35.11666679382324" height="28" fill="#E72E88"></rect><text x="17.55833339691162" y="15" dominant-baseline="middle" text-anchor="middle" fill="white">rest</text></g><g transform="translate(150.3976838193754 25.117857524326894) skewY(30) scale(0.8660 1)"><rect x="0" y="0" width="99.0999984741211" height="28" fill="#E72E88"></rect><text x="49.54999923706055" y="15" dominant-baseline="middle" text-anchor="middle" fill="white">swagger/raml</text></g><g transform="translate(131.06779083062364 35.38631003243586) skewY(30) scale(0.8660 1)"><rect x="0" y="0" width="100.88333129882812" height="28" fill="#E72E88"></rect><text x="50.44166564941406" y="15" dominant-baseline="middle" text-anchor="middle" fill="white">microservices</text></g><g transform="translate(138.68572094051234 71.21309546061926) skewY(30) scale(0.8660 1)"><rect x="0" y="0" width="40.433332443237305" height="28" fill="#E72E88"></rect><text x="20.216666221618652" y="15" dominant-baseline="middle" text-anchor="middle" fill="white">grpc</text></g><g transform="translate(111.27292280659552 76.81488050733296) skewY(30) scale(0.8660 1)"><rect x="0" y="0" width="60.88333511352539" height="28" fill="#E72E88"></rect><text x="30.441667556762695" y="15" dominant-baseline="middle" text-anchor="middle" fill="white">graphql</text></g><g transform="translate(88.86864029513397 85.30833339691162) skewY(30) scale(0.8660 1)"><rect x="0" y="0" width="69.76666641235352" height="28" fill="#E72E88"></rect><text x="34.88333320617676" y="15" dominant-baseline="middle" text-anchor="middle" fill="white">wcf/soap</text></g><g transform="translate(82.99822490626127 103.34761892046248) skewY(30) scale(0.8660 1)"><rect x="0" y="0" width="40.46666717529297" height="28" fill="#E72E88"></rect><text x="20.233333587646484" y="15" dominant-baseline="middle" text-anchor="middle" fill="white">tests</text></g><g transform="translate(49.436646901018655 115.39940425327848) skewY(30) scale(0.8660 1)"><rect x="0" y="0" width="75.11666870117188" height="28" fill="#E72E88"></rect><text x="37.55833435058594" y="15" dominant-baseline="middle" text-anchor="middle" fill="white">serverless</text></g><g transform="translate(29.731475356327067 135.45118958609447) skewY(30) scale(0.8660 1)"><rect x="0" y="0" width="77.76667022705078" height="28" fill="#E72E88"></rect><text x="38.88333511352539" y="15" dominant-baseline="middle" text-anchor="middle" fill="white">containers</text></g><g transform="translate(32.72338847156914 158.6071428571429) skewY(30) scale(0.8660 1)"><rect x="0" y="0" width="28" height="28" fill="#E72E88"></rect><text x="14" y="15" dominant-baseline="middle" text-anchor="middle" fill="white">go</text></g><g transform="translate(-2.1155756828056127 169.92142895289828) skewY(30) scale(0.8660 1)"><rect x="0" y="0" width="65.5999984741211" height="28" fill="#E72E88"></rect><text x="32.79999923706055" y="15" dominant-baseline="middle" text-anchor="middle" fill="white">c++/rust</text></g><g transform="translate(-45.36942045110246 166.37738146100725) skewY(30) scale(0.8660 1)"><rect x="0" y="0" width="122.63333129882812" height="28" fill="#E72E88"></rect><text x="61.31666564941406" y="15" dominant-baseline="middle" text-anchor="middle" fill="white">machine learning</text></g></g>
		<g id="wineChart" transform="translate(360 180)">
			<polygon class="leftFace" points="0,300 -21.6506,287.5 10.8253,218.75 43.3013,190 75.7772,171.25 108.253,142.5 140.729,123.75 173.205,95 205.681,66.25 238.157,137.5 259.808,150" fill="url('#wineGradientLeft')"></polygon>
			<polygon class="rightFace" points="0,300 32.476,231.25 64.9519,202.5 97.4279,183.75 129.904,155 162.38,136.25 194.856,107.5 227.332,78.75 259.808,150" fill="url('#wineGradientRight')"></polygon>
		<polygon points="32.476,231.25 10.8253,218.75 43.3013,190 64.9519,202.5" fill="#A32161"></polygon><polygon points="64.9519,202.5 43.3013,190 75.7772,171.25 97.4279,183.75" fill="#A32161"></polygon><polygon points="97.4279,183.75 75.7772,171.25 108.253,142.5 129.904,155" fill="#A32161"></polygon><polygon points="129.904,155 108.253,142.5 140.729,123.75 162.38,136.25" fill="#A32161"></polygon><polygon points="162.38,136.25 140.729,123.75 173.205,95 194.856,107.5" fill="#A32161"></polygon><polygon points="194.856,107.5 173.205,95 205.681,66.25 227.332,78.75" fill="#A32161"></polygon><g transform="translate(198.98377005596288 16.383333206176786) skewY(30) scale(0.8660 1)"><rect x="0" y="0" width="40.46666717529297" height="28" fill="#731744"></rect><text x="20.233333587646484" y="15" dominant-baseline="middle" text-anchor="middle" fill="white">t-sql</text></g><g transform="translate(154.0081848569368 37.916666984558105) skewY(30) scale(0.8660 1)"><rect x="0" y="0" width="69.33333206176758" height="28" fill="#731744"></rect><text x="34.66666603088379" y="15" dominant-baseline="middle" text-anchor="middle" fill="white">entity fw</text></g><g transform="translate(127.50780717077052 70.11666679382324) skewY(30) scale(0.8660 1)"><rect x="0" y="0" width="55.53333282470703" height="28" fill="#731744"></rect><text x="27.766666412353516" y="15" dominant-baseline="middle" text-anchor="middle" fill="white">dapper</text></g><g transform="translate(86.16230925649523 83.7458324432373) skewY(30) scale(0.8660 1)"><rect x="0" y="0" width="76.01667022705078" height="28" fill="#731744"></rect><text x="38.00833511352539" y="15" dominant-baseline="middle" text-anchor="middle" fill="white">cosmosdb</text></g><g transform="translate(52.546090713895865 111.83749961853027) skewY(30) scale(0.8660 1)"><rect x="0" y="0" width="78.6500015258789" height="28" fill="#731744"></rect><text x="39.32500076293945" y="15" dominant-baseline="middle" text-anchor="middle" fill="white">indexeddb</text></g><g transform="translate(22.754817154073645 132.13749980926514) skewY(30) scale(0.8660 1)"><rect x="0" y="0" width="72.45000076293945" height="28" fill="#731744"></rect><text x="36.22500038146973" y="15" dominant-baseline="middle" text-anchor="middle" fill="white">mongodb</text></g><g transform="translate(1.0680982182424543 167.11666679382324) skewY(30) scale(0.8660 1)"><rect x="0" y="0" width="47.53333282470703" height="28" fill="#731744"></rect><text x="23.766666412353516" y="15" dominant-baseline="middle" text-anchor="middle" fill="white">kafka</text></g></g>
		<g id="limeChart">
			<polygon class="leftFace" points="" fill="url('#limeGradientLeft')"></polygon>
			<polygon class="rightFace" points="" fill="url('#limeGradientRight')"></polygon>
		</g>

		<!--isometric transform-->
		<!-- Math.cos(30 * Math.PI / 180) = 0.8660254037844387 -->

	</svg>