<?xml version="1.0" encoding="utf-8"?>
<!-- Generator: Adobe Illustrator 24.2.3, SVG Export Plug-In . SVG Version: 6.00 Build 0)  -->
<svg version="1.1" id="Camada_1" xmlns="http://www.w3.org/2000/svg" xmlns:xlink="http://www.w3.org/1999/xlink" x="0px" y="0px"
	 viewBox="0 0 50 50" style="enable-background:new 0 0 50 50;" xml:space="preserve">
<style type="text/css">
	.st0{fill:none;stroke:#515C67;stroke-width:1.5;stroke-miterlimit:10;}
	.st1{fill:#515C67;}
</style>
<rect x="1" y="1" class="st0" width="48" height="48"/>
<path class="st1" d="M36.2,7.2l2.1,13.2l-2.8,0.5L33.3,7.7L36.2,7.2 M27,10.1l7.8,10.9l-2.3,1.7l-7.8-10.9L27,10.1 M20.5,16.4
	L32,23.3l-1.5,2.4L19,18.8L20.5,16.4 M17.4,22.9l13,3.6l-0.8,2.8l-13-3.6L17.4,22.9 M11.7,27h2.5l-0.1,11.4h17.1V27.1H34v14.2H11.7
	V27 M16.2,28.7L29.6,30l-0.3,2.9l-13.4-1.3L16.2,28.7 M29.3,33.8v2.8H15.9v-2.8H29.3 M37.4,5.4l-1.5,0.2l-2.8,0.5l-1.5,0.2l0.2,1.5
	l1.4,8.3l-5-6.9L27.3,8l-1.2,0.9l-2.3,1.7l-1.2,0.9l0.9,1.2l4.7,6.5l-6.9-4.2L20,14.3l-0.8,1.3l-1.5,2.5L17,19.4l1.3,0.8l4.7,2.8
	l-5.2-1.5l-1.4-0.4L16,22.5l-0.8,2.8l-0.1,0.3h-0.9h-2.5h-1.5v1.5v14.3v1.5h1.5H34h1.5v-1.5V27.1v-1.5H34h-1.6l1-1.6l0,0l0.1-0.1
	l2.2-1.6h0.2l2.8-0.5l1.5-0.2l-0.4-1.6L37.6,6.9L37.4,5.4L37.4,5.4z M15.7,27.1L15.7,27.1v-0.2l0.5,0.1l0.6,0.2h-0.5L15.7,27.1
	L15.7,27.1z"/>
</svg>
